<svg width="40" height="40" fill="none" xmlns="http://www.w3.org/2000/svg"><circle cx="20" cy="20" r="19" stroke="#801138" stroke-width="2"/><path d="M18.629 24.195c0-.57.02-1.039.058-1.406a3.52 3.52 0 01.223-.95c.117-.265.293-.53.527-.796.235-.266.551-.578.95-.938.828-.75 1.39-1.425 1.687-2.027a4.12 4.12 0 00.457-1.863c0-.828-.222-1.465-.668-1.91-.437-.446-1.066-.668-1.886-.668-.711 0-1.317.195-1.817.586-.492.382-.738.949-.738 1.699h-2.203l-.035-.07c-.016-.836.18-1.567.586-2.192.414-.625.984-1.11 1.71-1.453.727-.344 1.56-.516 2.497-.516 1.539 0 2.734.395 3.585 1.184.852.781 1.278 1.875 1.278 3.281 0 .672-.113 1.285-.34 1.84-.219.547-.55 1.098-.996 1.652a26.297 26.297 0 01-1.676 1.84c-.273.282-.473.54-.598.774a2.206 2.206 0 00-.246.785c-.03.289-.047.672-.047 1.148H18.63zM18.605 29v-2.438h2.403V29h-2.402z" fill="#801138"/></svg>