<svg width="102" height="101" fill="none" xmlns="http://www.w3.org/2000/svg"><path d="M25.5 17.17c-10.683 0-19.38 8.611-19.38 19.19v28.28c0 10.579 8.697 19.19 19.38 19.19h51c10.684 0 19.38-8.611 19.38-19.19V36.36c0-10.579-8.696-19.19-19.38-19.19h-51zm0 6.06h51c7.399 0 13.26 5.804 13.26 13.13v28.28c0 7.326-5.861 13.13-13.26 13.13h-51c-7.399 0-13.26-5.804-13.26-13.13V36.36c0-7.326 5.861-13.13 13.26-13.13zm16.352 9.942c-1.534-.01-2.936 1.514-2.932 3.188v28.28c-.006.105-.006.21 0 .316.102 1.043.71 2.012 1.566 2.492a2.75 2.75 0 002.769-.062l22.471-14.14c.887-.554 1.468-1.647 1.468-2.762s-.58-2.208-1.468-2.762l-22.471-14.14a2.743 2.743 0 00-1.403-.41zm2.9 8.68L58.428 50.5l-13.674 8.616V41.852z" fill="#fff"/></svg>