<?xml version="1.0" encoding="utf-8"?><svg viewBox="0 0 566.81 628.13" xmlns="http://www.w3.org/2000/svg" xmlns:xlink="http://www.w3.org/1999/xlink"><style>:root>svg{display:none}:root>svg:target{display:block}</style><svg viewBox="0 0 40 40" id="chair" xmlns="http://www.w3.org/2000/svg"><path d="M28.684 32.81a2.344 2.344 0 00-2.1 3.244 2.34 2.34 0 003.063 1.27 2.342 2.342 0 001.447-2.167 2.341 2.341 0 00-2.41-2.346zm.034 1.253a1.094 1.094 0 01.45 2.106 1.092 1.092 0 01-1.512-1.012 1.094 1.094 0 011.062-1.094zM11.181 32.813a2.343 2.343 0 10.137 4.685 2.343 2.343 0 00-.137-4.685zm.04 1.248a1.093 1.093 0 011.04 1.515 1.094 1.094 0 11-1.796-1.184c.199-.205.47-.324.755-.331zM30.259 20.002a7.233 7.233 0 00-.977-.8l.277-2.64 1.243.13-.367 3.492a4.345 4.345 0 00-.176-.182zM9.565 20.185l-.367-3.492 1.243-.13.277 2.639a7.236 7.236 0 00-.977.8c-.06.06-.12.12-.176.183zM14.907 19.193a5.981 5.981 0 00-4.292 1.704 3.126 3.126 0 002.183 5.359H17.5v2.236a9.682 9.682 0 00-5.042 3.279 3.59 3.59 0 011.101.632 8.432 8.432 0 0112.881 0c.327-.274.7-.488 1.101-.632a9.682 9.682 0 00-5.041-3.279v-2.236h4.702a3.125 3.125 0 002.182-5.36 5.983 5.983 0 00-6.054-1.403 10.625 10.625 0 01-6.66 0 5.983 5.983 0 00-1.763-.3zm-.022 1.25c.474.01.944.09 1.394.239 2.416.797 5.025.797 7.441 0a4.734 4.734 0 014.793 1.108 1.874 1.874 0 01-1.311 3.216H12.798a1.875 1.875 0 01-1.309-3.216 4.736 4.736 0 013.396-1.347zm3.865 5.813h2.5v1.987a9.686 9.686 0 00-2.5 0v-1.987zM26.89 3.92a5 5 0 012.806 6.078l-2.547 8.21a7.24 7.24 0 00-1.237-.23l2.59-8.35a3.75 3.75 0 00-2.104-4.559 16.246 16.246 0 00-12.796 0 3.75 3.75 0 00-2.104 4.558l2.59 8.35a7.24 7.24 0 00-1.237.232l-2.547-8.211A5 5 0 0113.11 3.92a17.497 17.497 0 0113.78 0z"/></svg><svg viewBox="0 0 512 512" id="check" xmlns="http://www.w3.org/2000/svg"><path d="M173.898 439.404l-166.4-166.4c-9.997-9.997-9.997-26.206 0-36.204l36.203-36.204c9.997-9.998 26.207-9.998 36.204 0L192 312.69 432.095 72.596c9.997-9.997 26.207-9.997 36.204 0l36.203 36.204c9.997 9.997 9.997 26.206 0 36.204l-294.4 294.401c-9.998 9.997-26.207 9.997-36.204-.001z"/></svg><svg viewBox="0 0 18 18" id="close" xmlns="http://www.w3.org/2000/svg"><defs><path id="ca" d="M691.485 160.07l-1.414 1.415-7.071-7.071-7.071 7.071-1.414-1.414 7.07-7.071-7.07-7.071 1.414-1.415 7.07 7.071 7.072-7.07 1.414 1.414-7.07 7.07z"/></defs><use xlink:href="#ca" transform="translate(-674 -144)"/></svg><svg viewBox="0 0 74 37" id="ellipse" xmlns="http://www.w3.org/2000/svg"><path d="M73 0c0 19.882-16.118 36-36 36S1 19.882 1 0" stroke="#E0E0E0"/></svg><svg viewBox="0 0 74 37" id="ellipse2" xmlns="http://www.w3.org/2000/svg"><path d="M73 0c0 19.882-16.118 36-36 36S1 19.882 1 0" stroke="#E0E0E0"/></svg><svg viewBox="0 0 40 40" id="files" xmlns="http://www.w3.org/2000/svg"><path d="M7.552 4.999A2.566 2.566 0 005 7.55V32.45a2.563 2.563 0 002.552 2.548h24.896A2.563 2.563 0 0035 32.45V7.55A2.566 2.566 0 0032.448 5H7.552zm0 1.67h24.896c.504 0 .885.377.885.882V32.45a.864.864 0 01-.885.882H7.552a.864.864 0 01-.885-.882V7.55c0-.504.381-.882.885-.882z"/><path d="M19.167 9.999a.834.834 0 00-.834.833v5a.834.834 0 00.834.833h10a.834.834 0 00.833-.833v-5a.833.833 0 00-.833-.833h-10zM20 11.665h8.333V15H20v-3.334zM19.167 18.331a.834.834 0 00-.834.834v5a.834.834 0 00.834.833h10a.834.834 0 00.833-.833v-5a.833.833 0 00-.833-.834h-10zM20 19.998h8.333v3.333H20v-3.333z"/><path fill-rule="evenodd" clip-rule="evenodd" d="M10 11.665v1.667h5v-1.667h-5zM10 19.998v1.667h5V20h-5zM10 28.331v1.667h19.83v-1.667H10z"/></svg><svg viewBox="0 0 566.813 628.125" id="house" xmlns="http://www.w3.org/2000/svg"><path d="M561.799 245.17l.016 93.266-34.875-27.906v312.59H42.69V304.93l-37.688 33.5 1.922-93.678 32.579-31.916h.405V34.216h58.594v130.97l184.22-160.19 279.08 240.17z"/></svg><svg viewBox="0 0 7 19" id="i" xmlns="http://www.w3.org/2000/svg"><path d="M.094 19v-1.477l1.91-.328V8.137l-1.91-.328V6.32h4.218v10.875l1.91.328V19H.095zm1.91-15.926V.72h2.308v2.355H2.005z"/></svg><svg viewBox="0 0 41 9" id="line_left" xmlns="http://www.w3.org/2000/svg"><path d="M.67 4.5L5 8.83 9.33 4.5 5 .17.67 4.5zM5 5.25h36v-1.5H5v1.5z"/></svg><svg viewBox="0 0 41 9" id="line_right" xmlns="http://www.w3.org/2000/svg"><path d="M40.33 4.5L36 .17 31.67 4.5 36 8.83l4.33-4.33zM0 5.25h36v-1.5H0v1.5z"/></svg><svg viewBox="0 0 40 40" id="phone" xmlns="http://www.w3.org/2000/svg"><path d="M32.44 25.36l-.04-.04-3-1.88c-.84-.6-1.76-.76-2.72-.48-1.12.32-2.08 1.32-2.56 2.6-.28.8-.76 1.08-1.6.96-3.08-.4-8.32-5.92-8.64-9.08-.08-.88.2-1.36 1-1.6 1.12-.44 1.92-1.24 2.24-2.24.28-1 .08-2.04-.6-3l-1.88-3-.04-.04c-.92-1.24-1.88-1.88-3.04-1.96-1.44-.12-3 .68-4.72 2.4-4.12 4.12-.6 13.88 5.32 19.8 4.12 4.12 10.12 7.12 14.8 7.12 1.92 0 3.6-.52 4.84-1.64.08-.04.16-.08.2-.16 1.72-1.72 2.52-3.28 2.4-4.72-.08-1.16-.72-2.16-1.96-3.04zm-1.48 6.48c-.04.04-.12.08-.16.12-3.16 3.16-11.68.56-17.56-5.32C7.4 20.8 4.84 12.28 8 9.12c1.36-1.36 2.52-2.04 3.48-1.96.64.04 1.24.48 1.84 1.28l1.88 3 .04.04c.4.52.52 1.12.36 1.64-.16.52-.6.96-1.28 1.2-1.44.48-2.2 1.68-2.04 3.28.4 3.92 6.2 10 10.04 10.52.16.04.36.04.52.04 1.32 0 2.32-.72 2.8-2 .32-.8.88-1.44 1.52-1.64.44-.12.88-.04 1.32.28l.04.04 3 1.88c.84.6 1.24 1.2 1.28 1.84.08.84-.56 1.96-1.84 3.28zM20.44 5.12c-.44 0-.8.36-.8.8 0 .44.36.8.8.8 7.12 0 12.92 5.8 12.92 12.92 0 .44.36.8.8.8.44 0 .8-.36.8-.8 0-8.04-6.52-14.52-14.52-14.52z"/><path d="M20.44 9.96c5.32 0 9.68 4.32 9.68 9.68 0 .44.36.8.8.8.44 0 .8-.36.8-.8 0-6.2-5.04-11.28-11.28-11.28-.44 0-.8.36-.8.8 0 .44.36.8.8.8z"/><path d="M20.44 13.28c3.52 0 6.36 2.84 6.36 6.32 0 .44.36.8.8.8.44 0 .8-.36.8-.8 0-4.4-3.56-7.96-7.96-7.96-.44 0-.8.36-.8.8 0 .48.36.84.8.84z"/></svg><svg fill="none" viewBox="0 0 40 40" id="phone2" xmlns="http://www.w3.org/2000/svg"><rect width="40" height="40" rx="4"/><path d="M23.842 28.992a5.789 5.789 0 01-4.121-1.706l-7.21-7.21a5.788 5.788 0 01-1.707-4.121c0-1.556.606-3.02 1.706-4.12.694-.694 1.372-1.03 2.075-1.03 1.234 0 2.21 1.026 3.342 2.216.25.263.511.537.787.813.046.046.458.48.458 1.273 0 .79-.665 1.48-.742 1.555a2.205 2.205 0 00-.372 2.617c.267.33 2.254 2.28 2.614 2.537.282.127.595.195.906.195.588 0 1.14-.23 1.556-.645.076-.075.764-.741 1.556-.741s1.226.411 1.273.458c.275.275.549.536.812.786 1.181 1.124 2.202 2.094 2.217 3.316.009.712-.328 1.4-1.03 2.101a5.789 5.789 0 01-4.12 1.706zm-9.257-16.988c-.369 0-.77.222-1.226.678a4.597 4.597 0 00-1.355 3.272c0 1.236.481 2.398 1.355 3.273l7.21 7.21a4.597 4.597 0 003.273 1.355 4.597 4.597 0 003.272-1.355c.461-.46.683-.866.678-1.237-.008-.717-.859-1.525-1.843-2.462-.27-.257-.552-.525-.834-.807-.002 0-.145-.107-.425-.107-.211 0-.548.233-.708.391-.64.641-1.494.995-2.403.995-.495 0-.993-.11-1.441-.32-.45-.21-2.95-2.716-3.108-2.993a3.407 3.407 0 01.552-4.084c.157-.16.39-.496.39-.708 0-.291-.118-.434-.122-.44-.267-.266-.535-.548-.792-.818-.941-.989-1.754-1.843-2.473-1.843z" fill="#fff"/></svg><svg viewBox="0 0 60 60" id="place" xmlns="http://www.w3.org/2000/svg"><path d="M47.76 9.66C43.56 3.72 37.08.42 30 .42c-7.2 0-13.62 3.42-17.7 9.3-4.02 5.88-4.92 13.32-2.34 19.86.36.78.72 1.68 1.26 2.52l15.96 25.92c.6 1.02 1.68 1.62 2.88 1.62s2.22-.6 2.88-1.62l16.02-26.1c.54-.96 1.02-1.8 1.32-2.64 2.46-6.48 1.5-13.86-2.52-19.62zM30 32.22c-6.06 0-10.98-4.98-10.98-10.98S23.94 10.2 30 10.2c6.06 0 10.98 4.98 10.98 10.98S36.06 32.22 30 32.22z"/><circle cx="30" cy="21" r="5"/></svg><svg fill="none" viewBox="0 0 40 40" id="question" xmlns="http://www.w3.org/2000/svg"><circle cx="20" cy="20" r="19" stroke="#801138" stroke-width="2"/><path d="M18.629 24.195c0-.57.02-1.039.058-1.406.04-.367.114-.684.223-.95.117-.265.293-.53.527-.796.235-.266.551-.578.95-.938.828-.75 1.39-1.425 1.687-2.027.305-.61.457-1.23.457-1.863 0-.828-.222-1.465-.668-1.91-.437-.446-1.066-.668-1.886-.668-.711 0-1.317.195-1.817.586-.492.382-.738.949-.738 1.699h-2.203l-.035-.07c-.016-.836.18-1.567.586-2.192.414-.625.984-1.11 1.71-1.453.727-.344 1.56-.516 2.497-.516 1.539 0 2.734.395 3.585 1.184.852.781 1.278 1.875 1.278 3.281 0 .672-.113 1.285-.34 1.84-.219.547-.55 1.098-.996 1.652a26.297 26.297 0 01-1.676 1.84c-.273.282-.473.54-.598.774a2.206 2.206 0 00-.246.785c-.03.289-.047.672-.047 1.148H18.63zM18.605 29v-2.438h2.403V29h-2.402z" fill="#801138"/></svg><svg viewBox="0 0 40 40" id="star" xmlns="http://www.w3.org/2000/svg"><path d="M25.56 22.32l4.08-3.52c.44-.4.6-1 .44-1.56-.2-.56-.68-.96-1.28-1l-5.32-.44-2.08-4.96c-.24-.56-.76-.88-1.36-.88-.6 0-1.12.36-1.36.88L16.6 15.8l-5.32.44c-.6.04-1.08.44-1.28 1-.2.56 0 1.16.44 1.56l4.08 3.48-1.24 5.2c-.12.56.08 1.16.56 1.52.48.36 1.12.36 1.6.08l4.56-2.8 4.56 2.8c.24.16.48.2.76.2.32 0 .6-.08.84-.28.48-.36.68-.96.56-1.52l-1.16-5.16zm-1.12-1.16c-.4.36-.6.92-.48 1.44l1.16 4.96-4.32-2.68c-.24-.16-.48-.2-.76-.2s-.52.08-.76.2l-4.36 2.64 1.16-4.96c.12-.52-.04-1.08-.48-1.44l-3.88-3.32 5.08-.4c.56-.04 1-.4 1.24-.88L20 11.8l2 4.72c.2.52.68.84 1.24.88l5.08.4-3.88 3.36zM20.04 6.32c.44 0 .8-.36.8-.8V1.8c0-.44-.36-.8-.8-.8-.44 0-.8.36-.8.8v3.72c0 .44.36.8.8.8zM9.2 10.28c.16.16.36.24.56.24.2 0 .4-.08.56-.24.32-.32.32-.84 0-1.12l-2.6-2.6c-.32-.32-.84-.32-1.12 0-.32.32-.32.84 0 1.12l2.6 2.6zM5.52 19.16H1.8c-.44 0-.8.36-.8.8 0 .44.36.8.8.8h3.72c.44 0 .8-.36.8-.8 0-.44-.36-.8-.8-.8zM9.16 29.64l-2.6 2.6c-.32.32-.32.84 0 1.12.16.16.36.24.56.24.2 0 .4-.08.56-.24l2.6-2.6c.32-.32.32-.84 0-1.12-.32-.32-.84-.32-1.12 0zM19.96 33.68c-.44 0-.8.36-.8.8v3.72c0 .44.36.8.8.8.44 0 .8-.36.8-.8v-3.72c0-.44-.36-.8-.8-.8zM30.8 29.72c-.32-.32-.84-.32-1.12 0-.32.32-.32.84 0 1.12l2.6 2.6c.16.16.36.24.56.24.2 0 .4-.08.56-.24.32-.32.32-.84 0-1.12l-2.6-2.6zM38.2 19.24h-3.72c-.44 0-.8.36-.8.8 0 .44.36.8.8.8h3.72c.44 0 .8-.36.8-.8 0-.44-.36-.8-.8-.8zM30.28 10.6c.2 0 .4-.08.56-.24l2.6-2.6c.32-.32.32-.84 0-1.12-.32-.32-.84-.32-1.12 0l-2.6 2.56c-.32.32-.32.84 0 1.12.16.2.36.28.56.28z"/></svg><svg viewBox="0 0 40 40" id="suitcase" xmlns="http://www.w3.org/2000/svg"><path d="M24.252 5.619h-8.504a2.88 2.88 0 00-2.877 2.876v3.127H9.37a5.007 5.007 0 00-5.002 5.002V29.38A5.007 5.007 0 009.37 34.38h21.26a5.008 5.008 0 005.002-5.001V16.624a5.007 5.007 0 00-5.002-5.002h-3.502V8.495a2.88 2.88 0 00-2.877-2.876zm-9.88 2.876c0-.76.617-1.376 1.376-1.376h8.504c.759 0 1.376.617 1.376 1.376v3.127H23.5v-1.277c0-.882-.718-1.6-1.6-1.6h-3.802c-.882 0-1.6.718-1.6 1.6v1.277h-2.127V8.495zM22 11.622h-3.966l.065-1.377 3.901.1v1.277zm8.63 21.26H9.37a3.506 3.506 0 01-3.502-3.502v-7.755h9.13v1.377a2.88 2.88 0 002.876 2.876h4.252a2.88 2.88 0 002.876-2.876v-1.377h9.13v7.755a3.507 3.507 0 01-3.502 3.501zM16.497 21.624h7.005v1.377c0 .759-.617 1.376-1.377 1.376h-4.252a1.378 1.378 0 01-1.376-1.376v-1.377zm17.635-5.001v3.501H5.868v-3.501a3.506 3.506 0 013.501-3.502h21.26c1.931 0 3.503 1.57 3.503 3.502z"/></svg><svg viewBox="0 0 32 32" id="timer" xmlns="http://www.w3.org/2000/svg"><path d="M16 10.4a.8.8 0 00-.8.8v8a.8.8 0 001.6 0v-8a.8.8 0 00-.8-.8z"/><path d="M25.585 10.746l2.181-2.18a.8.8 0 00-1.13-1.13l-2.182 2.178A12.744 12.744 0 0016.8 6.44V1.6h4a.8.8 0 000-1.6h-9.6a.8.8 0 000 1.6h4v4.84c-6.685.416-12 5.971-12 12.76C3.2 26.258 8.942 32 16 32c7.058 0 12.8-5.742 12.8-12.8 0-3.242-1.22-6.197-3.215-8.454zM16 30.4c-6.176 0-11.2-5.026-11.2-11.2C4.8 13.026 9.824 8 16 8c6.176 0 11.2 5.026 11.2 11.2 0 6.174-5.024 11.2-11.2 11.2z"/></svg><svg fill="none" viewBox="0 0 102 101" id="video_white" xmlns="http://www.w3.org/2000/svg"><path d="M25.5 17.17c-10.683 0-19.38 8.611-19.38 19.19v28.28c0 10.579 8.697 19.19 19.38 19.19h51c10.684 0 19.38-8.611 19.38-19.19V36.36c0-10.579-8.696-19.19-19.38-19.19h-51zm0 6.06h51c7.399 0 13.26 5.804 13.26 13.13v28.28c0 7.326-5.861 13.13-13.26 13.13h-51c-7.399 0-13.26-5.804-13.26-13.13V36.36c0-7.326 5.861-13.13 13.26-13.13zm16.352 9.942c-1.534-.01-2.936 1.514-2.932 3.188v28.28c-.006.105-.006.21 0 .316.102 1.043.71 2.012 1.566 2.492a2.75 2.75 0 002.769-.062l22.471-14.14c.887-.554 1.468-1.647 1.468-2.762s-.58-2.208-1.468-2.762l-22.471-14.14a2.743 2.743 0 00-1.403-.41zm2.9 8.68L58.428 50.5l-13.674 8.616V41.852z" fill="#fff"/></svg></svg>